<svg width="720" height="720" viewBox="0 0 720 720" fill="none" xmlns="http://www.w3.org/2000/svg">
<path d="M118.335 447H114.873C108.873 447 103.103 446.423 97.5644 445.269C92.0255 444.115 87.0636 442.038 82.6787 439.038C78.5245 436.038 75.0627 431.883 72.2933 426.575C69.7546 421.267 68.4853 414.344 68.4853 405.805V237.215C68.4853 228.907 69.7546 222.098 72.2933 216.79C74.8319 211.482 78.1783 207.328 82.3325 204.328C86.4866 201.097 91.2178 198.904 96.5259 197.75C101.834 196.366 107.257 195.673 112.796 195.673H118.335V447ZM125.605 302.989H156.415C156.415 308.297 155.953 313.144 155.03 317.529C154.338 321.914 152.838 325.837 150.53 329.299C148.453 332.53 145.568 335.068 141.875 336.915C138.183 338.761 133.452 339.684 127.682 339.684H125.605V302.989ZM194.149 228.56C194.149 235.946 192.764 241.831 189.994 246.216C187.225 250.6 183.879 254.062 179.955 256.601C176.032 259.14 171.878 260.87 167.493 261.794C163.108 262.486 159.3 262.832 156.069 262.832C153.299 262.832 150.992 262.601 149.145 262.14V246.216C149.145 242.061 148.107 238.715 146.03 236.176C143.953 233.407 140.952 232.022 137.029 232.022C132.644 232.022 128.951 233.407 125.951 236.176C125.259 234.33 124.797 232.715 124.566 231.33C124.566 229.714 124.566 227.983 124.566 226.137C124.566 222.906 125.143 219.444 126.297 215.752C127.682 212.059 129.644 208.713 132.182 205.712C134.952 202.712 138.414 200.289 142.568 198.443C146.953 196.366 152.145 195.327 158.146 195.327C162.992 195.327 167.608 196.135 171.993 197.75C176.378 199.366 180.186 201.674 183.417 204.674C186.648 207.674 189.187 211.251 191.033 215.406C193.11 219.329 194.149 223.714 194.149 228.56ZM199.236 217.829C199.236 209.982 202.005 203.405 207.544 198.097C213.083 192.558 219.661 189.788 227.276 189.788C234.892 189.788 241.354 192.558 246.663 198.097C252.201 203.405 254.971 209.982 254.971 217.829C254.971 225.676 252.201 232.253 246.663 237.561C241.354 242.869 234.892 245.523 227.276 245.523C219.661 245.523 213.083 242.869 207.544 237.561C202.005 232.253 199.236 225.676 199.236 217.829ZM204.429 271.141H208.237C220.237 271.141 230.277 274.372 238.354 280.834C246.663 287.296 250.817 297.566 250.817 311.644V447H248.74C243.432 447 238.123 446.308 232.815 444.923C227.738 443.538 223.007 441.346 218.622 438.345C214.468 435.114 211.006 431.076 208.237 426.229C205.698 421.152 204.429 414.921 204.429 407.535V271.141ZM332.548 392.996C332.548 395.765 332.663 398.419 332.894 400.958C333.355 403.497 334.048 405.805 334.971 407.882C336.125 409.728 337.625 411.343 339.471 412.728C341.548 413.882 344.318 414.459 347.78 414.459C349.626 414.459 351.472 414.228 353.318 413.767C355.396 413.074 357.242 412.036 358.857 410.651C359.78 412.497 360.357 414.344 360.588 416.19C360.819 417.805 360.934 419.536 360.934 421.383C360.934 428.768 357.819 434.884 351.588 439.73C345.356 444.577 337.856 447 329.086 447C315.239 447 304.622 443.307 297.237 435.922C289.852 428.537 286.16 419.306 286.16 408.228V311.99C286.16 304.374 287.544 298.027 290.314 292.95C293.314 287.642 297.007 283.372 301.391 280.141C306.007 276.91 310.969 274.602 316.277 273.218C321.816 271.833 327.24 271.141 332.548 271.141V392.996ZM365.089 325.145C365.089 322.375 364.858 319.721 364.396 317.182C364.165 314.644 363.473 312.451 362.319 310.605C361.396 308.528 359.896 306.912 357.819 305.759C355.973 304.374 353.318 303.681 349.857 303.681C348.01 303.681 346.049 304.028 343.972 304.72C342.125 305.182 340.394 306.105 338.779 307.489C337.856 305.643 337.279 303.912 337.048 302.297C336.817 300.45 336.702 298.604 336.702 296.758C336.702 289.373 339.817 283.257 346.049 278.41C352.28 273.564 359.78 271.141 368.55 271.141C382.398 271.141 393.014 274.718 400.399 281.872C407.784 288.796 411.477 298.835 411.477 311.99V454.27C411.477 460.27 410.092 465.694 407.323 470.54C404.784 475.618 401.322 480.003 396.937 483.695C392.552 487.388 387.59 490.273 382.051 492.35C376.513 494.427 370.858 495.465 365.089 495.465V325.145ZM309.007 508.62C309.007 501.466 310.392 495.581 313.162 490.965C315.931 486.58 319.277 483.118 323.201 480.579C327.124 478.041 331.278 476.31 335.663 475.387C340.048 474.694 343.856 474.348 347.087 474.348C349.857 474.348 352.165 474.579 354.011 475.041V490.965C354.011 495.811 355.165 499.389 357.473 501.696C359.78 504.004 362.665 505.158 366.127 505.158C370.281 505.158 373.974 503.774 377.205 501.004C377.897 502.85 378.243 504.466 378.243 505.851C378.474 507.466 378.59 509.197 378.59 511.043C378.59 513.813 377.897 516.928 376.513 520.39C375.359 524.083 373.397 527.429 370.627 530.429C368.089 533.66 364.627 536.314 360.242 538.392C356.088 540.699 351.011 541.853 345.01 541.853C338.779 541.853 333.355 540.815 328.74 538.738C324.355 536.661 320.662 534.007 317.662 530.776C314.892 527.775 312.7 524.314 311.084 520.39C309.7 516.467 309.007 512.543 309.007 508.62ZM489.072 392.996C489.072 395.765 489.188 398.419 489.419 400.958C489.88 403.497 490.573 405.805 491.496 407.882C492.65 409.728 494.15 411.343 495.996 412.728C498.073 413.882 500.843 414.459 504.304 414.459C506.151 414.459 507.997 414.228 509.843 413.767C511.92 413.074 513.767 412.036 515.382 410.651C516.305 412.497 516.882 414.344 517.113 416.19C517.344 417.805 517.459 419.536 517.459 421.383C517.459 428.768 514.344 434.884 508.112 439.73C501.881 444.577 494.381 447 485.611 447C471.763 447 461.147 443.307 453.762 435.922C446.377 428.537 442.684 419.306 442.684 408.228V311.99C442.684 304.374 444.069 298.027 446.838 292.95C449.839 287.642 453.531 283.372 457.916 280.141C462.532 276.91 467.494 274.602 472.802 273.218C478.341 271.833 483.764 271.141 489.072 271.141V392.996ZM521.613 325.145C521.613 322.375 521.383 319.721 520.921 317.182C520.69 314.644 519.998 312.451 518.844 310.605C517.921 308.528 516.421 306.912 514.344 305.759C512.497 304.374 509.843 303.681 506.381 303.681C504.535 303.681 502.573 304.028 500.496 304.72C498.65 305.182 496.919 306.105 495.304 307.489C494.381 305.643 493.804 303.912 493.573 302.297C493.342 300.45 493.227 298.604 493.227 296.758C493.227 289.373 496.342 283.257 502.573 278.41C508.805 273.564 516.305 271.141 525.075 271.141C538.922 271.141 549.539 274.718 556.924 281.872C564.309 288.796 568.001 298.835 568.001 311.99V454.27C568.001 460.27 566.617 465.694 563.847 470.54C561.309 475.618 557.847 480.003 553.462 483.695C549.077 487.388 544.115 490.273 538.576 492.35C533.037 494.427 527.383 495.465 521.613 495.465V325.145ZM465.532 508.62C465.532 501.466 466.917 495.581 469.686 490.965C472.456 486.58 475.802 483.118 479.726 480.579C483.649 478.041 487.803 476.31 492.188 475.387C496.573 474.694 500.381 474.348 503.612 474.348C506.381 474.348 508.689 474.579 510.536 475.041V490.965C510.536 495.811 511.69 499.389 513.997 501.696C516.305 504.004 519.19 505.158 522.652 505.158C526.806 505.158 530.499 503.774 533.73 501.004C534.422 502.85 534.768 504.466 534.768 505.851C534.999 507.466 535.114 509.197 535.114 511.043C535.114 513.813 534.422 516.928 533.037 520.39C531.883 524.083 529.922 527.429 527.152 530.429C524.614 533.66 521.152 536.314 516.767 538.392C512.613 540.699 507.535 541.853 501.535 541.853C495.304 541.853 489.88 540.815 485.264 538.738C480.88 536.661 477.187 534.007 474.187 530.776C471.417 527.775 469.225 524.314 467.609 520.39C466.225 516.467 465.532 512.543 465.532 508.62ZM597.478 217.829C597.478 209.982 600.248 203.405 605.787 198.097C611.325 192.558 617.903 189.788 625.519 189.788C633.135 189.788 639.597 192.558 644.905 198.097C650.444 203.405 653.213 209.982 653.213 217.829C653.213 225.676 650.444 232.253 644.905 237.561C639.597 242.869 633.135 245.523 625.519 245.523C617.903 245.523 611.325 242.869 605.787 237.561C600.248 232.253 597.478 225.676 597.478 217.829ZM602.671 271.141H606.479C618.48 271.141 628.519 274.372 636.597 280.834C644.905 287.296 649.059 297.566 649.059 311.644V447H646.982C641.674 447 636.366 446.308 631.058 444.923C625.98 443.538 621.249 441.346 616.864 438.345C612.71 435.114 609.248 431.076 606.479 426.229C603.94 421.152 602.671 414.921 602.671 407.535V271.141Z" fill="url(#paint0_linear_1202_3)"/>
<defs>
<linearGradient id="paint0_linear_1202_3" x1="51" y1="187" x2="669" y2="533" gradientUnits="userSpaceOnUse">
<stop stop-color="#009CAD"/>
<stop offset="0.55" stop-color="#7A46DA"/>
<stop offset="1" stop-color="#DD00FF"/>
</linearGradient>
</defs>
</svg>
