<svg width="720" height="720" viewBox="0 0 720 720" fill="none" xmlns="http://www.w3.org/2000/svg">
<path d="M352.907 678H344.169C329.023 678 314.459 676.544 300.478 673.631C286.497 670.718 273.973 665.475 262.905 657.902C252.419 650.329 243.681 639.844 236.69 626.445C230.282 613.047 227.078 595.571 227.078 574.017V148.473C227.078 127.502 230.282 110.317 236.69 96.9188C243.098 83.5204 251.545 73.0348 262.031 65.4618C272.516 57.3062 284.458 51.7721 297.857 48.8595C311.255 45.3642 324.945 43.6166 338.926 43.6166H352.907V678ZM371.256 314.497H449.025C449.025 327.895 447.86 340.128 445.53 351.196C443.782 362.265 439.996 372.168 434.171 380.906C428.928 389.061 421.646 395.469 412.325 400.13C403.005 404.79 391.063 407.12 376.499 407.12H371.256V314.497ZM544.27 126.628C544.27 145.269 540.775 160.124 533.784 171.192C526.794 182.261 518.347 190.999 508.444 197.407C498.541 203.814 488.055 208.183 476.987 210.514C465.919 212.261 456.307 213.135 448.151 213.135C441.161 213.135 435.336 212.553 430.675 211.387V171.192C430.675 160.707 428.054 152.26 422.811 145.852C417.568 138.861 409.995 135.366 400.092 135.366C389.024 135.366 379.703 138.861 372.13 145.852C370.383 141.192 369.218 137.114 368.635 133.619C368.635 129.541 368.635 125.172 368.635 120.512C368.635 112.356 370.091 103.618 373.004 94.2974C376.499 84.9768 381.451 76.53 387.859 68.957C394.849 61.384 403.587 55.2674 414.073 50.607C425.141 45.3642 438.248 42.7428 453.394 42.7428C465.628 42.7428 477.278 44.7817 488.347 48.8595C499.415 52.9372 509.027 58.7626 517.182 66.3356C525.338 73.9086 531.746 82.9379 536.406 93.4236C541.649 103.327 544.27 114.395 544.27 126.628Z" fill="url(#paint0_linear_1202_12)"/>
<defs>
<linearGradient id="paint0_linear_1202_12" x1="366" y1="43" x2="679.052" y2="307.543" gradientUnits="userSpaceOnUse">
<stop stop-color="#009CAD"/>
<stop offset="0.55" stop-color="#7A46DA"/>
<stop offset="1" stop-color="#DD00FF"/>
</linearGradient>
</defs>
</svg>
